<?xml version="1.0" encoding="utf-8"?>
<!-- Generator: Adobe Illustrator 22.1.0, SVG Export Plug-In . SVG Version: 6.00 Build 0)  -->
<svg version="1.1" id="Layer_1" xmlns="http://www.w3.org/2000/svg" xmlns:xlink="http://www.w3.org/1999/xlink" x="0px" y="0px"
	 viewBox="0 0 24 24" style="enable-background:new 0 0 24 24;" xml:space="preserve">
<title>accounting-bills</title>
<g>
	<circle cx="4.125" cy="7.875" r="1.125"/>
	<circle cx="16.875" cy="13.125" r="1.125"/>
	<path d="M2.25,17.25C1.009,17.25,0,16.241,0,15V6c0-1.241,1.009-2.25,2.25-2.25h16.5C19.991,3.75,21,4.759,21,6v9
		c0,1.241-1.009,2.25-2.25,2.25H2.25z M2.25,5.25C1.836,5.25,1.5,5.586,1.5,6v9c0,0.414,0.336,0.75,0.75,0.75h16.5
		c0.414,0,0.75-0.336,0.75-0.75V6c0-0.414-0.336-0.75-0.75-0.75H2.25z"/>
	<path d="M10.5,14.25c-2.068,0-3.75-1.682-3.75-3.75c0-2.068,1.682-3.75,3.75-3.75c2.068,0,3.75,1.682,3.75,3.75
		C14.25,12.568,12.568,14.25,10.5,14.25z M10.5,8.25c-1.241,0-2.25,1.009-2.25,2.25s1.009,2.25,2.25,2.25s2.25-1.009,2.25-2.25
		S11.741,8.25,10.5,8.25z"/>
	<path d="M5.25,20.25c-0.414,0-0.75-0.336-0.75-0.75s0.336-0.75,0.75-0.75h16.5c0.414,0,0.75-0.336,0.75-0.75V9
		c0-0.414,0.336-0.75,0.75-0.75S24,8.586,24,9v9c0,1.241-1.009,2.25-2.25,2.25H5.25z"/>
</g>
</svg>
