<?xml version="1.0" encoding="utf-8"?>
<!-- Generator: Adobe Illustrator 22.1.0, SVG Export Plug-In . SVG Version: 6.00 Build 0)  -->
<svg version="1.1" id="Layer_1" xmlns="http://www.w3.org/2000/svg" xmlns:xlink="http://www.w3.org/1999/xlink" x="0px" y="0px"
	 viewBox="0 0 24 24" style="enable-background:new 0 0 24 24;" xml:space="preserve">
<title>accounting-coins-bill</title>
<g>
	<path d="M6.75,24C2.902,24,0,22.388,0,20.25v-6c0-2.138,2.902-3.75,6.75-3.75s6.75,1.612,6.75,3.75v6
		C13.5,22.388,10.598,24,6.75,24z M1.5,20.25c0,1.062,2.245,2.25,5.25,2.25S12,21.312,12,20.25v-0.598
		C10.75,20.506,8.858,21,6.75,21s-4-0.494-5.25-1.348V20.25z M1.5,17.25c0,1.062,2.245,2.25,5.25,2.25S12,18.312,12,17.25v-0.598
		C10.75,17.506,8.858,18,6.75,18s-4-0.494-5.25-1.348V17.25z M6.75,12c-3.005,0-5.25,1.188-5.25,2.25s2.245,2.25,5.25,2.25
		S12,15.312,12,14.25S9.755,12,6.75,12z"/>
	<path d="M15.75,16.5c-0.414,0-0.75-0.336-0.75-0.75S15.336,15,15.75,15h6c0.414,0,0.75-0.336,0.75-0.75v-12
		c0-0.414-0.336-0.75-0.75-0.75H2.25C1.836,1.5,1.5,1.836,1.5,2.25v7.507c0,0.414-0.336,0.75-0.75,0.75S0,10.171,0,9.757V2.25
		C0,1.009,1.009,0,2.25,0h19.5C22.991,0,24,1.009,24,2.25v12c0,1.241-1.009,2.25-2.25,2.25H15.75z"/>
	<path d="M13.979,11.255c-0.216,0-0.422-0.093-0.564-0.256c-0.132-0.15-0.198-0.343-0.185-0.543c0.013-0.2,0.103-0.383,0.254-0.515
		c0.487-0.427,0.766-1.043,0.766-1.691c0-0.601-0.234-1.166-0.659-1.591C13.166,6.234,12.601,6,12,6
		c-0.601,0-1.166,0.234-1.591,0.659C9.984,7.084,9.75,7.649,9.75,8.25C9.75,8.664,9.414,9,9,9S8.25,8.664,8.25,8.25
		c0-1.002,0.39-1.943,1.099-2.652C10.057,4.89,10.999,4.5,12,4.5c1.002,0,1.944,0.39,2.652,1.099
		c0.708,0.708,1.098,1.65,1.098,2.652c0,1.079-0.465,2.106-1.276,2.818C14.337,11.189,14.162,11.255,13.979,11.255z"/>
	<circle cx="4.5" cy="4.5" r="1.125"/>
	<circle cx="19.5" cy="12" r="1.125"/>
</g>
</svg>
