<svg xmlns="http://www.w3.org/2000/svg" viewBox="0 0 24 24"><title>accounting-coins</title><path d="M7.673,9.209a.25.25,0,0,0-.248-.2,7.5,7.5,0,1,0,7.569,7.569.25.25,0,0,0-.2-.248A9.01,9.01,0,0,1,7.673,9.209ZM9.4,14.233a.75.75,0,0,1-.75.75h-1.9a.5.5,0,0,0-.187.969l1.926.771a1.995,1.995,0,0,1-.3,3.8A.25.25,0,0,0,8,20.767V21a.75.75,0,0,1-1.5,0v-.167a.25.25,0,0,0-.25-.25h-.4a.75.75,0,0,1,0-1.5h1.9a.5.5,0,0,0,.5-.5.5.5,0,0,0-.314-.466l-1.927-.77a2,2,0,0,1,.3-3.8A.25.25,0,0,0,6.5,13.3v-.234a.75.75,0,0,1,1.5,0v.167a.25.25,0,0,0,.25.25h.4A.75.75,0,0,1,9.4,14.233Z" /><path d="M16.5,0A7.5,7.5,0,1,0,24,7.5,7.508,7.508,0,0,0,16.5,0Zm0,13.208a.75.75,0,0,1-.75-.75V12a.25.25,0,0,0-.25-.25h-.75a.75.75,0,0,1,0-1.5h2.372a.815.815,0,0,0,.3-1.572l-2.406-.963a2.308,2.308,0,0,1,.518-4.43.251.251,0,0,0,.213-.248v-.5a.75.75,0,1,1,1.5,0V3a.25.25,0,0,0,.25.25h.75a.75.75,0,0,1,0,1.5H15.878a.815.815,0,0,0-.3,1.572l2.406.963a2.309,2.309,0,0,1-.518,4.43.251.251,0,0,0-.213.248v.5A.75.75,0,0,1,16.5,13.208Z" /></svg>
