<?xml version="1.0" encoding="utf-8"?>
<!-- Generator: Adobe Illustrator 22.1.0, SVG Export Plug-In . SVG Version: 6.00 Build 0)  -->
<svg version="1.1" id="Regular" xmlns="http://www.w3.org/2000/svg" xmlns:xlink="http://www.w3.org/1999/xlink" x="0px" y="0px"
	 viewBox="0 0 24 24" style="enable-background:new 0 0 24 24;" xml:space="preserve">
<title>beach-parasol-water</title>
<g>
	<path d="M12.133,24.001c-0.052,0-0.104-0.002-0.157-0.007c-0.459-0.041-0.875-0.258-1.172-0.612l-0.948-1.131
		c-0.009-0.01-0.019-0.02-0.029-0.029c-0.052-0.044-0.108-0.053-0.146-0.053c-0.068,0-0.132,0.03-0.176,0.082l-0.942,1.13
		c-0.068,0.081-0.14,0.153-0.217,0.217C8.037,23.857,7.643,24,7.239,24c-0.514,0-0.997-0.225-1.326-0.618L4.967,22.25
		c-0.008-0.01-0.018-0.019-0.028-0.028c-0.052-0.044-0.108-0.053-0.146-0.053c-0.068,0-0.132,0.03-0.175,0.082l-0.942,1.13
		c-0.068,0.081-0.14,0.153-0.217,0.217C3.149,23.857,2.755,24,2.351,24c-0.514,0-0.997-0.225-1.326-0.618l-0.872-1.144
		c-0.121-0.16-0.173-0.357-0.146-0.555c0.027-0.198,0.13-0.375,0.289-0.496c0.131-0.1,0.288-0.153,0.453-0.153
		c0.236,0,0.454,0.108,0.597,0.296l0.85,1.117c0.026,0.03,0.084,0.055,0.149,0.055c0.039,0,0.097-0.009,0.151-0.054
		c0.01-0.008,0.02-0.018,0.028-0.028l0.942-1.131c0.33-0.394,0.813-0.619,1.327-0.619c0.404,0,0.798,0.143,1.108,0.402
		c0.077,0.064,0.15,0.137,0.215,0.215l0.946,1.133C7.106,22.47,7.17,22.5,7.238,22.5c0.038,0,0.094-0.009,0.147-0.053
		c0.009-0.008,0.019-0.017,0.027-0.028l0.942-1.131c0.33-0.394,0.813-0.619,1.327-0.619c0.405,0,0.798,0.143,1.108,0.402
		c0.077,0.064,0.15,0.137,0.215,0.215l0.949,1.132c0.044,0.052,0.108,0.082,0.176,0.082c0.038,0,0.093-0.009,0.145-0.053
		c0.011-0.009,0.021-0.019,0.029-0.028l0.941-1.13c0.33-0.394,0.814-0.619,1.328-0.619c0.404,0,0.798,0.143,1.108,0.402
		c0.078,0.066,0.15,0.138,0.215,0.215l0.945,1.134c0.042,0.051,0.106,0.08,0.174,0.08c0.038,0,0.094-0.009,0.146-0.053
		c0.011-0.009,0.021-0.019,0.029-0.028l0.942-1.13c0.33-0.394,0.813-0.619,1.328-0.619c0.404,0,0.798,0.143,1.108,0.402
		c0.078,0.066,0.15,0.138,0.215,0.215l0.944,1.134c0.042,0.051,0.106,0.08,0.174,0.08c0.038,0,0.094-0.009,0.146-0.053
		c0.011-0.009,0.021-0.019,0.029-0.028l0.585-0.7c0.142-0.171,0.352-0.269,0.575-0.269c0.176,0,0.347,0.062,0.481,0.175
		c0.153,0.128,0.248,0.309,0.266,0.508c0.018,0.199-0.043,0.394-0.172,0.548l-0.585,0.7c-0.064,0.077-0.137,0.151-0.216,0.217
		c-0.31,0.26-0.703,0.403-1.106,0.403c-0.052,0-0.104-0.002-0.156-0.007c-0.459-0.041-0.876-0.258-1.172-0.612l-0.943-1.133
		c-0.008-0.009-0.018-0.019-0.029-0.028c-0.051-0.043-0.107-0.052-0.145-0.052c-0.068,0-0.132,0.03-0.176,0.082l-0.942,1.13
		c-0.066,0.079-0.139,0.152-0.217,0.217C17.814,23.857,17.42,24,17.016,24c-0.514,0-0.997-0.225-1.326-0.618l-0.944-1.133
		c-0.008-0.009-0.018-0.019-0.029-0.028c-0.051-0.043-0.107-0.052-0.145-0.052c-0.068,0-0.132,0.03-0.176,0.081l-0.941,1.13
		c-0.065,0.078-0.138,0.152-0.217,0.218C12.929,23.858,12.536,24.001,12.133,24.001z"/>
	<path d="M11.021,19.721c-0.23,0-0.444-0.103-0.587-0.283c-0.125-0.156-0.181-0.353-0.159-0.552
		c0.023-0.199,0.121-0.377,0.278-0.502c1.449-1.154,3.263-1.822,5.115-1.883l-1.934-5.558L6.6,13.427
		c-0.183,0.063-0.374,0.096-0.567,0.096c-0.469-0.002-0.902-0.184-1.228-0.512c-0.325-0.328-0.504-0.763-0.502-1.224
		C4.321,8.59,5.761,5.612,8.256,3.615c0.742-0.594,1.555-1.083,2.421-1.456l-0.404-1.161c-0.066-0.189-0.054-0.393,0.033-0.573
		c0.087-0.18,0.24-0.316,0.429-0.382C10.814,0.014,10.897,0,10.981,0c0.319,0,0.604,0.203,0.708,0.504l0.404,1.161
		c0.89-0.24,1.808-0.362,2.733-0.362c0.39,0,0.785,0.022,1.174,0.065c2.797,0.31,5.306,1.691,7.065,3.888
		c0.123,0.154,0.218,0.325,0.282,0.51c0.315,0.899-0.162,1.887-1.062,2.202l-7.135,2.483l2.105,6.049h5.994
		c0.414,0,0.75,0.336,0.75,0.75S23.663,18,23.25,18h-7.5c-1.533,0.039-3.05,0.592-4.262,1.558
		C11.357,19.663,11.19,19.721,11.021,19.721z M11.812,3.322c-0.944,0.336-1.825,0.829-2.618,1.464
		c-2.14,1.713-3.375,4.267-3.389,7.007c0,0.126,0.102,0.229,0.228,0.229c0,0,0.001,0,0.002,0c0.028,0,0.043-0.002,0.074-0.013
		l15.684-5.458c0.119-0.042,0.182-0.172,0.14-0.292c-0.009-0.025-0.021-0.047-0.037-0.067c-1.508-1.884-3.659-3.068-6.058-3.334
		c-0.337-0.037-0.678-0.056-1.014-0.056c-0.987,0-1.96,0.161-2.892,0.479c-0.02,0.01-0.038,0.018-0.058,0.025
		C11.855,3.312,11.833,3.318,11.812,3.322z"/>
</g>
</svg>
