<?xml version="1.0" encoding="utf-8"?>
<!-- Generator: Adobe Illustrator 22.1.0, SVG Export Plug-In . SVG Version: 6.00 Build 0)  -->
<svg version="1.1" id="Layer_1" xmlns="http://www.w3.org/2000/svg" xmlns:xlink="http://www.w3.org/1999/xlink" x="0px" y="0px"
	 viewBox="0 0 24 24" style="enable-background:new 0 0 24 24;" xml:space="preserve">
<title>building-modern-2</title>
<g>
	<path d="M4.5,24c-0.414,0-0.75-0.336-0.75-0.75v-12c0-0.414,0.336-0.75,0.75-0.75s0.75,0.336,0.75,0.75v12
		C5.25,23.664,4.914,24,4.5,24z"/>
	<path d="M7.5,24c-0.414,0-0.75-0.336-0.75-0.75v-12c0-0.414,0.336-0.75,0.75-0.75s0.75,0.336,0.75,0.75v12
		C8.25,23.664,7.914,24,7.5,24z"/>
	<path d="M10.5,24c-0.414,0-0.75-0.336-0.75-0.75V9h-7.5v14.25C2.25,23.664,1.914,24,1.5,24s-0.75-0.336-0.75-0.75v-15
		c0-0.014,0.001-0.034,0.003-0.051C0.755,8.176,0.757,8.154,0.76,8.132C0.765,8.106,0.77,8.084,0.775,8.063
		C0.783,8.035,0.79,8.012,0.798,7.99c0.009-0.024,0.019-0.046,0.029-0.067C0.837,7.901,0.848,7.881,0.86,7.862
		c0.013-0.021,0.026-0.041,0.041-0.06C0.91,7.788,0.922,7.772,0.93,7.762l4.32-5.04V0.75C5.25,0.336,5.586,0,6,0
		s0.75,0.336,0.75,0.75v1.973l4.319,5.039c0.009,0.01,0.021,0.026,0.03,0.04c0.014,0.019,0.028,0.039,0.04,0.059
		c0.012,0.021,0.023,0.04,0.033,0.06c0.011,0.023,0.02,0.044,0.029,0.067c0.009,0.024,0.016,0.047,0.022,0.069
		c0.007,0.027,0.012,0.049,0.015,0.071c0.004,0.025,0.006,0.048,0.008,0.071c0.002,0.017,0.003,0.037,0.003,0.051v15
		C11.25,23.664,10.914,24,10.5,24z M8.869,7.5L6,4.152L3.131,7.5H8.869z"/>
	<path d="M22.5,24c-0.414,0-0.75-0.336-0.75-0.75V11.041l-7.5-2.501l0,14.71c0,0.414-0.336,0.75-0.75,0.75s-0.75-0.336-0.75-0.75
		V8.541c0-0.162,0.026-0.323,0.078-0.478c0.127-0.379,0.394-0.687,0.753-0.865c0.211-0.105,0.435-0.158,0.667-0.158
		c0.161,0,0.322,0.026,0.477,0.078l7.5,2.5c0.613,0.205,1.025,0.777,1.026,1.423v12.21C23.25,23.664,22.914,24,22.5,24z"/>
	<path d="M19.5,22.5c-0.414,0-0.75-0.336-0.75-0.75V21c0-0.414,0.336-0.75,0.75-0.75s0.75,0.336,0.75,0.75v0.75
		C20.25,22.164,19.914,22.5,19.5,22.5z"/>
	<path d="M19.5,18.75c-0.414,0-0.75-0.336-0.75-0.75v-0.75c0-0.414,0.336-0.75,0.75-0.75s0.75,0.336,0.75,0.75V18
		C20.25,18.414,19.914,18.75,19.5,18.75z"/>
	<path d="M19.5,15c-0.414,0-0.75-0.336-0.75-0.75V13.5c0-0.414,0.336-0.75,0.75-0.75s0.75,0.336,0.75,0.75v0.75
		C20.25,14.664,19.914,15,19.5,15z"/>
	<path d="M16.5,22.5c-0.414,0-0.75-0.336-0.75-0.75V21c0-0.414,0.336-0.75,0.75-0.75s0.75,0.336,0.75,0.75v0.75
		C17.25,22.164,16.914,22.5,16.5,22.5z"/>
	<path d="M16.5,18.75c-0.414,0-0.75-0.336-0.75-0.75v-0.75c0-0.414,0.336-0.75,0.75-0.75s0.75,0.336,0.75,0.75V18
		C17.25,18.414,16.914,18.75,16.5,18.75z"/>
	<path d="M16.5,15c-0.414,0-0.75-0.336-0.75-0.75V13.5c0-0.414,0.336-0.75,0.75-0.75s0.75,0.336,0.75,0.75v0.75
		C17.25,14.664,16.914,15,16.5,15z"/>
</g>
</svg>
