<svg width="18" height="16" viewBox="0 0 18 16" fill="none" xmlns="http://www.w3.org/2000/svg">
<path d="M1.49884 16C1.36485 16 1.23951 15.948 1.14484 15.8533C0.995512 15.704 0.956178 15.476 1.04684 15.2853L2.98751 11.21C2.33818 10.0753 1.99684 8.78867 1.99818 7.47933C2.00484 3.35533 5.36484 0 9.48884 0H9.51151C10.9122 0 12.2815 0.391333 13.4715 1.13067C15.1702 2.18667 16.3568 3.844 16.8122 5.79733C17.2675 7.75067 16.9368 9.76133 15.8808 11.46C14.8235 13.1613 13.1662 14.3487 11.2155 14.804C10.6502 14.936 10.0722 15.0027 9.49818 15.0027C8.20218 15.0027 6.92284 14.66 5.78951 14.0113L1.71485 15.952C1.64684 15.9833 1.57284 16 1.49884 16ZM9.48884 1C5.91551 1 3.00418 3.90733 2.99884 7.48067C2.99684 8.69733 3.33618 9.88667 3.97884 10.9193C4.06951 11.0653 4.07951 11.244 4.00551 11.3987L2.55618 14.4433L5.60018 12.9933C5.66684 12.9613 5.74084 12.9447 5.81484 12.9447C5.90818 12.9447 5.99951 12.9707 6.07884 13.0207C7.11284 13.6633 8.29484 14.0027 9.49818 14.0027C9.99618 14.0027 10.4968 13.9447 10.9868 13.83C12.6775 13.4353 14.1135 12.4067 15.0308 10.932C16.9235 7.888 15.9868 3.872 12.9428 1.98C11.9115 1.33867 10.7248 1 9.51084 1C9.50751 1 9.48884 1 9.48884 1Z" fill="#EA5E45"/>
</svg>
