<?xml version="1.0" encoding="utf-8"?>
<!-- Generator: Adobe Illustrator 22.1.0, SVG Export Plug-In . SVG Version: 6.00 Build 0)  -->
<svg version="1.1" id="Layer_1" xmlns="http://www.w3.org/2000/svg" xmlns:xlink="http://www.w3.org/1999/xlink" x="0px" y="0px"
	 viewBox="0 0 24 24" style="enable-background:new 0 0 24 24;" xml:space="preserve">
<title>money-bag-dollar</title>
<g>
	<path d="M12.079,20.25c-0.414,0-0.75-0.336-0.75-0.75h-0.75c-0.414,0-0.75-0.336-0.75-0.75S10.165,18,10.579,18h2.031
		c0.242,0,0.458-0.146,0.548-0.371c0.059-0.147,0.057-0.308-0.005-0.453c-0.062-0.146-0.177-0.258-0.324-0.317l-2.062-0.825
		c-0.797-0.32-1.312-1.082-1.312-1.94c-0.001-1.08,0.822-1.973,1.874-2.082V12c0-0.414,0.336-0.75,0.75-0.75
		c0.413,0,0.75,0.336,0.75,0.75l0.75,0c0.414,0,0.75,0.336,0.75,0.75s-0.336,0.75-0.75,0.75h-2.033
		c-0.157,0-0.306,0.062-0.418,0.174c-0.112,0.112-0.173,0.261-0.173,0.418c0,0.243,0.146,0.458,0.371,0.549l2.063,0.825
		c1.071,0.431,1.592,1.652,1.161,2.722c-0.292,0.728-0.954,1.22-1.721,1.3V19.5C12.828,19.913,12.492,20.25,12.079,20.25z"/>
	<path d="M6.829,9c-0.414,0-0.75-0.336-0.75-0.75S6.415,7.5,6.829,7.5h10.5c0.414,0,0.75,0.336,0.75,0.75S17.742,9,17.328,9H6.829z"
		/>
	<path d="M15.634,5.786c-0.115,0-0.231-0.027-0.334-0.079C14.93,5.522,14.779,5.07,14.964,4.7l1.438-2.876l-1.9,0.949
		c-0.207,0.103-0.438,0.157-0.668,0.157c-0.504,0-0.971-0.25-1.25-0.667l-0.505-0.766l-0.507,0.766
		c-0.278,0.418-0.745,0.668-1.249,0.668c-0.231,0-0.463-0.055-0.67-0.158L7.756,1.825l1.409,2.82C9.35,5.014,9.2,5.465,8.83,5.65
		C8.726,5.702,8.611,5.73,8.495,5.73l0,0c-0.286,0-0.543-0.159-0.671-0.414l-1.41-2.82c-0.208-0.42-0.208-0.919,0-1.337
		c0.178-0.359,0.486-0.627,0.866-0.755c0.155-0.052,0.317-0.079,0.479-0.079c0.232,0,0.457,0.053,0.667,0.157l1.898,0.949
		l0.509-0.763c0.111-0.166,0.251-0.306,0.416-0.416C11.496,0.087,11.783,0,12.079,0c0.099,0,0.198,0.01,0.295,0.029
		c0.393,0.079,0.732,0.306,0.954,0.639l0.505,0.766l1.898-0.951c0.206-0.103,0.438-0.157,0.67-0.157c0.232,0,0.464,0.054,0.67,0.157
		c0.358,0.179,0.626,0.486,0.753,0.866c0.127,0.38,0.098,0.787-0.081,1.146l-1.438,2.876C16.178,5.627,15.921,5.786,15.634,5.786z"
		/>
	<path d="M9.182,23.999c-1.465,0-2.911-0.492-4.073-1.386c-2.92-2.246-3.468-6.45-1.222-9.37l2.786-3.232
		c0.143-0.165,0.35-0.26,0.568-0.26c0.18,0,0.354,0.065,0.49,0.182c0.151,0.13,0.243,0.313,0.258,0.512s-0.049,0.393-0.18,0.545
		l-2.76,3.2c-0.822,1.071-1.183,2.425-1.005,3.797c0.179,1.373,0.882,2.594,1.979,3.438c0.901,0.693,2.022,1.074,3.158,1.074h5.79
		c2.857-0.001,5.181-2.326,5.18-5.184c0-1.136-0.382-2.258-1.075-3.158l-2.734-3.168c-0.131-0.152-0.195-0.345-0.18-0.545
		c0.015-0.2,0.106-0.382,0.258-0.513c0.135-0.117,0.31-0.182,0.49-0.182c0.219,0,0.426,0.095,0.568,0.261l2.76,3.2
		c0.915,1.187,1.412,2.639,1.413,4.104c0.001,3.685-2.996,6.683-6.68,6.684H9.182z"/>
</g>
</svg>
