<svg xmlns="http://www.w3.org/2000/svg" xmlns:xlink="http://www.w3.org/1999/xlink" overflow="visible" baseProfile="tiny" viewBox="0 0 954.9 615"><g fill="#1d1d1b" fill-rule="evenodd"><path d="m5.5 287-.1.9 1.6.2.1-1zm-2.9-.2v.9h1.6v-.9H2.6zm-3-.1v1l1.7.1v-1zm14.6 1.3-.1.9 1.5.3.2-.9zm-2.9-.4-.1.9c.5 0 1 .1 1.6.2l.1-.9c-.5-.1-1-.2-1.6-.2zm-2.9-.4-.1 1 1.6.2.2-1zm14.3 2.9-.3.9c.5.1 1 .3 1.5.5l.3-.9a5.27 5.27 0 0 0-1.5-.5zm-2.8-.9-.2.9c.5.1 1 .3 1.5.4l.2-.9c-.4-.1-1-.2-1.5-.4zm-2.8-.7-.2 1 1.5.4.3-1zm13.8 4.7-.4.9 1.4.7.5-.9zm-2.6-1.1-.4.9 1.5.6.3-.9zm-2.8-1.1-.3.9 1.5.6.4-.9zm13.1 6.4-.5.8c.4.3.9.5 1.3.8l.5-.8-1.3-.8zm-2.5-1.5-.5.8c.5.2.9.5 1.4.8l.5-.8c-.4-.2-.9-.5-1.4-.8zm-2.5-1.4-.4.8c.5.2.9.5 1.4.7l.4-.8c-.5-.2-1-.4-1.4-.7zm12.3 7.9-.6.7 1.3 1 .6-.8zm-2.4-1.7-.5.8 1.3.9.5-.8zm-2.4-1.7-.5.8 1.3.9.5-.8-1.3-.9zm11.248 9.352.548-.714 1.269.974-.548.714zm-2.363-1.691.547-.715 1.271.972-.547.715zM48.2 304.1l-.5.7 1.3 1 .5-.8zm11.6 8.8-.5.7 1.3 1 .6-.8zm-2.3-1.8-.5.8 1.3 1 .5-.8zm-2.3-1.7-.6.8 1.3.9.6-.7zm11.9 8.3-.5.8c.4.3.9.5 1.4.8l.5-.8c-.4-.3-.9-.6-1.4-.8zm-2.4-1.6-.5.8c.4.3.9.6 1.4.8l.5-.8c-.5-.2-1-.5-1.4-.8zm-2.5-1.6-.5.8 1.3.9.5-.8-1.3-.9zm12.7 7.1-.4.9 1.4.7.4-.9zm-2.6-1.2-.5.9 1.5.7.4-.9zm-2.6-1.3-.4.8c.5.2.9.5 1.4.8l.4-.8c-.5-.3-.9-.6-1.4-.8zm13.3 5.5-.3.9 1.6.4.2-.9c-.4-.1-1-.2-1.5-.4zm-2.8-.9-.3.9c.5.2 1 .3 1.5.5l.3-.9c-.4-.1-.9-.3-1.5-.5zm-2.7-.9-.3.9 1.5.5.4-.9zm14 3.7-.1.9c.5.1 1.1.1 1.6.2l.1-.9c-.5 0-1.1-.1-1.6-.2zm-2.8-.5-.2 1 1.6.3.1-1zm-2.9-.6-.2.9 1.6.4.2-1zm14.4 2v.9h1.6v-.9c-.6.1-1.1.1-1.6 0zm-2.9-.2-.1 1 1.6.1.1-1zm-2.9-.3-.1 1 1.6.2.1-1zm14.4.6v.9h1.6v-.9h-1.6zm-2.9.1v.9h1.7v-1zm-2.8-.1v1h1.6v-.9zm14.4-.8.1.9c.5-.1 1.1-.1 1.6-.2l-.1-.9c-.5.1-1 .2-1.6.2zm-2.8.4.1 1 1.6-.2-.1-1zm-2.9.2v1l1.7-.1-.1-1zm14.3-2.3.2.9 1.6-.4-.2-.9c-.6.2-1.1.3-1.6.4zm-2.9.7.2 1 1.6-.4-.2-.9zm-2.8.6.2.9 1.6-.3-.2-.9zm13.9-4 .4.9 1.4-.7-.3-.9zm-2.7 1 .3.9 1.6-.5-.4-1z"/><use xlink:href="#a"/><use xlink:href="#b"/><use xlink:href="#c"/><path d="m136.9 321.1.5.9 1.4-.7-.4-.9zm12.6-7.3.5.8 1.3-1-.5-.7z"/><use xlink:href="#d"/><path d="m144.6 317 .5.8c.4-.3.9-.5 1.4-.8l-.5-.8c-.5.2-.9.5-1.4.8zm11.897-8.427 1.271-.972.547.715-1.271.972zM154.1 310.3l.6.8 1.3-1-.6-.7zm-2.3 1.8.6.8 1.3-1-.6-.8zm11.6-8.8.6.8 1.3-1-.5-.7zm-2.3 1.7.6.8 1.3-1-.6-.8zm-2.38 1.79 1.269-.974.609.793-1.269.974zm11.88-8.49.5.8a9.13 9.13 0 0 1 1.3-.8l-.5-.8c-.4.2-.8.5-1.3.8z"/><use xlink:href="#d" x="21.1" y="-15.5"/><path d="m165.8 301.6.5.8 1.4-1-.6-.8zm12.5-7.7.4.9 1.4-.7-.4-.9zm-2.6 1.4.4.8 1.4-.7-.4-.8c-.5.2-1 .4-1.4.7zm-2.6 1.4.5.8c.4-.3.9-.5 1.4-.8l-.5-.8c-.5.3-.9.6-1.4.8zm13.2-6.2.3.9c.5-.2 1-.3 1.5-.5l-.3-.9a5.27 5.27 0 0 1-1.5.5zm-2.7 1.1.3.9 1.6-.6-.4-.9zm-2.7 1.1.4.9 1.5-.7-.4-.9zm13.9-4.4.2.9 1.6-.3-.1-.9zm-2.8.6.2 1 1.6-.4-.2-1zm-2.8.8.2.9c.5-.1 1-.3 1.5-.4l-.2-.9c-.5 0-1 .2-1.5.4zm14.3-2.6.1 1 1.6-.2-.1-.9zm-2.9.3.1 1 1.6-.2-.1-1zm-2.9.4.1.9c.5-.1 1-.1 1.6-.2l-.1-.9c-.5 0-1.1.1-1.6.2zm14.6-1.1v1l1.6.1v-1zm-2.9.1v1l1.6-.1v-1zm-2.9.1v.9h1.6v-.9c-.6-.1-1.1-.1-1.6 0zm14.5.3-.1 1 1.7.2.1-1zm-2.9-.2v.9l1.6.2.1-1zm-2.9-.2v.9h1.6v-.9h-1.6zm14.5 1.7-.2 1 1.5.4.3-1zm-2.8-.5-.2.9 1.5.3.2-.9zm-2.9-.4-.1.9c.5.1 1 .1 1.6.2l.1-.9c-.5-.1-1.1-.2-1.6-.2zm14.2 3.4-.4.9 1.5.6.4-.9zm-2.8-.9-.3.9c.5.1 1 .3 1.5.5l.3-.9c-.5-.2-1-.4-1.5-.5z"/><use xlink:href="#e"/><path d="m246.2 294.5-.4.8c.5.2.9.5 1.4.7l.4-.8c-.5-.2-.9-.4-1.4-.7zm-2.7-1.3-.4.9 1.5.7.4-.9zm-2.6-1.1-.4.9 1.5.6.4-.9zm12.8 6.9-.5.8 1.3.9.5-.8c-.3-.3-.8-.6-1.3-.9zm-2.4-1.6-.5.8c.4.3.9.5 1.3.8l.5-.8a9.13 9.13 0 0 1-1.3-.8zm-2.5-1.5-.5.8c.5.2.9.5 1.4.8l.5-.8c-.5-.2-1-.5-1.4-.8zm12.1 8.1-.6.8 1.3 1 .6-.8zm-2.4-1.6-.6.7 1.3 1 .6-.8zm-2.3-1.7-.6.8 1.4.9.5-.8zm11.6 8.7-.6.7 1.3 1 .6-.7zm-2.81-.983.609-.793 1.269.974-.609.793zm-2.402-1.871.547-.715 1.271.972-.547.715zM274.9 314.5l-.5.8 1.3.9.5-.8-1.3-.9zm-2.4-1.6-.5.7 1.2 1 .6-.8zm-2.3-1.8-.6.8 1.3 1 .6-.8zm12.1 7.9-.5.9c.5.2.9.5 1.4.8l.4-.8-1.3-.9zm-2.5-1.3-.5.8c.4.3.9.5 1.4.8l.5-.8-1.4-.8z"/><use xlink:href="#f"/><path d="m290.1 322.7-.3 1 1.5.5.4-.9zm-2.6-1.1-.4.9 1.5.7.4-.9zm-2.6-1.2-.4.9 1.4.7.5-.9zm13.6 5-.3.9 1.6.4.2-1zm-2.8-.8-.2.9 1.6.4.2-.9c-.6-.1-1.1-.2-1.6-.4z"/><use xlink:href="#g"/><path d="m307 326.9-.1 1 1.6.2.1-1zm-2.9-.4-.1.9c.5.1 1.1.1 1.6.2l.1-.9c-.5 0-1.1-.1-1.6-.2zm-2.8-.5-.2 1 1.6.3.2-1zm14.4 1.5v1h1.6v-.9zm-2.9-.1v.9h1.6v-.9c-.5.1-1.1.1-1.6 0zm-2.9-.2-.1 1 1.7.1v-1zm14.5.1.1 1 1.6-.1-.1-1zm-2.9.2v.9h1.6v-.9h-1.6zm-2.9.1v.9h1.6v-1zm14.5-1.3.1 1 1.6-.3-.2-1zm-2.9.4.1.9c.5-.1 1.1-.1 1.6-.2l-.1-.9c-.5.1-1.1.2-1.6.2zm-2.9.4.1 1 1.6-.2-.1-1z"/><use xlink:href="#a" x="212.6"/><path d="m338.7 325 .2.9 1.6-.4-.2-.9c-.6.2-1.1.3-1.6.4zm-2.8.7.2 1 1.6-.4-.2-.9zm13.7-4.6.4.9 1.4-.7-.4-.9zm-2.7 1.2.4.9 1.5-.7-.4-.9zm-2.7 1 .4.9 1.5-.6-.3-.9zm13-6.3.5.8c.4-.3.9-.5 1.4-.8l-.5-.8c-.4.2-.9.5-1.4.8zm-2.5 1.5.5.8c.5-.2.9-.5 1.4-.8l-.5-.8c-.4.2-.9.5-1.4.8zm-2.5 1.3.4.8c.5-.2.9-.5 1.4-.8l-.4-.8c-.5.3-.9.6-1.4.8zm12.2-7.7.6.8 1.3-1-.6-.8zm-2.3 1.7.6.8 1.2-1-.5-.8z"/><use xlink:href="#d" x="212.6"/><path d="m371.386 306.782 1.269-.974.548.714-1.269.974zm-2.298 1.809 1.271-.972.547.715-1.271.972zM366.8 310.3l.6.8 1.3-1-.6-.7zm11.6-8.7.6.8 1.3-.9-.6-.8zm-2.3 1.7.6.7 1.3-.9-.6-.7zm-2.4 1.7.6.8 1.3-1-.6-.8zm12-8.2.5.8c.4-.3.9-.5 1.4-.8l-.5-.8c-.4.2-.9.5-1.4.8zm-2.5 1.5.5.8a9.13 9.13 0 0 1 1.3-.8l-.5-.8-1.3.8z"/><use xlink:href="#d" x="233.7" y="-15.5"/><path d="m393.6 292.7.3.9 1.5-.6-.4-.9zm-2.7 1.2.4.9 1.5-.7-.4-.9zm-2.6 1.4.4.8 1.4-.7-.4-.8-1.4.7zm13.5-5.6.2.9c.5-.1 1-.3 1.5-.4l-.2-.9c-.5.1-1 .2-1.5.4zm-2.8.8.3.9c.5-.2 1-.3 1.5-.5l-.3-.9c-.5.2-1 .4-1.5.5zm-2.8 1.1.4.9 1.5-.6-.3-.9zm14.1-3.8.1.9c.5-.1 1-.1 1.6-.2l-.1-.9c-.5 0-1 .1-1.6.2zm-2.8.5.2.9 1.6-.3-.2-.9zm-2.9.6.3 1 1.5-.4-.2-1zm14.5-2v.9h1.6v-.9c-.5-.1-1.1-.1-1.6 0zm-2.9.2v1l1.6-.2v-.9zm-3 .3.2 1 1.6-.2-.1-1zm14.6-.6v.9h1.6v-.9h-1.6zm-2.9-.1v1l1.6.1v-1zm-2.9.1v1l1.7-.1v-1zm14.6.8-.1.9c.5 0 1 .1 1.6.2l.1-.9c-.5-.1-1.1-.2-1.6-.2zm-2.9-.4-.1 1 1.6.2.1-1zm-2.9-.2-.1.9 1.6.2.1-1z"/><use xlink:href="#e" x="212.6"/><path d="m442.3 288.5-.2 1 1.6.4.2-1zm-2.8-.5-.2.9 1.6.3.2-.9zm14 4.1-.3.9 1.4.6.4-.9zm-2.7-1.1-.3.9 1.5.6.3-.9zm-2.8-.9-.3.9c.5.1 1 .3 1.5.5l.3-.9c-.4-.2-1-.4-1.5-.5zm13.4 5.8-.5.8c.5.2.9.5 1.4.8l.5-.8c-.5-.2-.9-.5-1.4-.8zm-2.6-1.4-.4.8c.5.2.9.5 1.4.7l.4-.8-1.4-.7zm-2.6-1.3-.4.9 1.4.7.5-.8zm12.6 7.5-.6.8 1.4.9.5-.8zm-2.4-1.7-.5.8 1.3.9.5-.8-1.3-.9zm-2.5-1.6-.5.8c.4.3.9.5 1.3.8l.5-.8-1.3-.8zm11.397 9.189.607-.794 1.271.972-.607.794zM473.5 304.1l-.6.7 1.3 1 .6-.8zm-2.3-1.7-.6.8 1.3.9.6-.8zm11.6 8.7-.6.8 1.3 1 .6-.8zm-2.3-1.7-.6.8 1.3.9.6-.7zm-2.999-1.01.548-.714 1.269.974-.548.714z"/><use xlink:href="#f" x="212.6"/><path d="m487.5 314.5-.5.8 1.3.9.5-.8-1.3-.9zm-2.3-1.6-.6.8 1.3.9.5-.8zm12.3 7.5-.4.9 1.5.7.4-.9zm-2.6-1.4-.4.9c.5.2.9.5 1.4.8l.4-.8c-.4-.3-.9-.6-1.4-.9zm-2.5-1.3-.5.8c.4.3.9.5 1.4.8l.5-.8c-.5-.3-.9-.6-1.4-.8z"/><use xlink:href="#g" x="212.6"/><path d="m502.8 322.7-.4 1 1.6.5.3-.9zm-2.6-1.1-.4.9 1.4.7.4-.9zm13.7 4.4-.2 1 1.7.3.1-1zm-2.8-.6-.2.9 1.6.4.2-1zm-2.8-.8-.2.9 1.6.4.2-.9c-.6-.1-1.1-.2-1.6-.4zm14.2 2.6-.1 1 1.7.1v-1zm-2.9-.3-.1 1 1.6.2.1-1zm-2.8-.4-.1.9c.5.1 1.1.1 1.6.2l.1-.9c-.6 0-1.1-.1-1.6-.2zm14.4 1.1v.9h1.6v-1zm-2.9-.1v1h1.7v-.9zm-2.9-.1v.9h1.6v-.9c-.5.1-1 .1-1.6 0zm14.5-.3.1 1 1.7-.2-.2-1zm-2.9.2.1 1 1.6-.1-.1-1zm-2.9.2v.9h1.6v-.9h-1.6zm14.4-1.8.2 1 1.6-.4-.2-.9zm-2.8.6.2.9 1.5-.3-.2-.9zm-2.9.4.1.9c.5-.1 1.1-.1 1.6-.2l-.1-.9c-.5.1-1 .2-1.6.2zm14.1-3.4.3.9 1.5-.5-.3-1z"/><use xlink:href="#a" x="425.2"/><path d="m551.3 325 .2.9 1.6-.4-.2-.9c-.5.2-1 .3-1.6.4z"/><use xlink:href="#c" x="425.3"/><path d="m562.2 321.1.4.9 1.5-.7-.4-.9zm-2.6 1.2.4.9 1.5-.7-.4-.9z"/><use xlink:href="#d" x="425.2"/><path d="m569.9 317 .5.8c.4-.3.9-.5 1.4-.8l-.5-.8c-.5.2-1 .5-1.4.8z"/><use xlink:href="#b" x="425.3"/><path d="m579.4 310.3.6.8 1.3-1-.6-.7zm-2.3 1.8.5.8 1.3-1-.5-.8zm-2.4 1.7.6.8 1.3-1-.5-.8zm11.7-8.8.6.8 1.3-1-.6-.8zm-2.326 1.887 1.269-.974.548.714-1.269.974zm-2.406 1.771 1.271-.972.547.715-1.271.972z"/><use xlink:href="#d" x="446.3" y="-15.5"/><path d="m591.1 301.6.5.8 1.3-1-.5-.8zm-2.4 1.7.6.7 1.3-.9-.6-.8zm12.2-8 .4.8 1.4-.7-.4-.8-1.4.7zm-2.5 1.4.5.8c.4-.3.9-.5 1.4-.8l-.5-.8-1.4.8zm-2.5 1.6.5.8a9.13 9.13 0 0 1 1.3-.8l-.5-.8a9.13 9.13 0 0 0-1.3.8zm12.9-6.7.4.9 1.5-.6-.3-.9zm-2.6 1.1.4.9 1.4-.6-.4-1zm-2.7 1.2.5.9 1.4-.7-.4-.9zm13.8-5 .2 1 1.5-.4-.2-1zm-2.9.8.2.9c.5-.1 1-.3 1.5-.4l-.1-1c-.5.2-1.1.3-1.6.5zm-2.8.8.3.9c.5-.1 1-.3 1.5-.5l-.3-.9c-.4.2-1 .4-1.5.5zm14.3-3.1.1 1 1.6-.2-.1-1zm-2.9.4.1.9c.5-.1 1-.1 1.6-.2l-.1-.9c-.6 0-1.1.1-1.6.2zm-2.9.5.2.9 1.6-.3-.2-.9zm14.5-1.5.1 1 1.6-.1v-1zm-2.9.1v.9h1.6v-.9c-.5-.1-1-.1-1.6 0zm-2.9.2.1 1 1.6-.2-.1-.9zm14.6-.1-.1.9 1.6.2.1-1zm-2.9-.2v.9h1.6v-.9h-1.6zm-2.9-.1v1l1.6.1v-1zm14.5 1.3-.1.9 1.5.3.2-.9zm-2.9-.4-.1.9c.5 0 1 .1 1.6.2l.1-.9c-.5-.1-1-.2-1.6-.2zm-2.9-.4-.1 1 1.6.2.2-1zm14.3 2.9-.3.9c.5.1 1 .3 1.5.5l.3-.9a5.27 5.27 0 0 0-1.5-.5zm-2.8-.9-.2.9c.5.1 1 .3 1.5.4l.2-.9c-.4-.1-1-.2-1.5-.4zm-2.8-.7-.2 1 1.5.4.3-1zm13.8 4.7-.4.9 1.4.7.5-.9zm-2.6-1.1-.4.9 1.5.6.4-.9zm-2.8-1.1-.3.9 1.5.6.4-.9zm13.1 6.4-.5.8c.4.3.9.5 1.3.8l.5-.8-1.3-.8zm-2.5-1.5-.5.8c.5.2.9.5 1.4.8l.5-.8c-.4-.2-.9-.5-1.4-.8zm-2.5-1.4-.4.8c.5.2.9.5 1.4.7l.4-.8c-.5-.1-1-.4-1.4-.7zm12.3 7.9-.6.7 1.3 1 .6-.8zm-2.4-1.7-.5.8 1.3.9.6-.8zM679 299l-.5.8 1.3.9.5-.8-1.3-.9zm11.282 9.356.548-.714 1.269.974-.548.714zm-2.576-1.669.607-.794 1.271.972-.607.794zM686.1 304.1l-.5.7 1.3 1 .5-.8zm11.7 8.8-.6.7 1.3 1 .6-.8zm-2.4-1.8-.5.8 1.3 1 .5-.8zm-2.3-1.7-.6.8 1.3.9.6-.7zm11.9 8.3-.5.8c.4.3.9.5 1.4.8l.5-.8c-.4-.3-.9-.6-1.4-.8zm-2.4-1.6-.5.8c.4.3.9.6 1.4.8l.5-.8c-.5-.2-1-.5-1.4-.8zm-2.5-1.6-.5.8 1.3.9.5-.8-1.3-.9zm12.7 7.1-.4.9 1.4.7.4-.9zm-2.6-1.2-.5.9 1.5.7.4-.9zm-2.6-1.3-.4.8c.5.2.9.5 1.4.8l.4-.8c-.5-.3-.9-.6-1.4-.8zm13.3 5.5-.2.9 1.6.4.2-.9c-.5-.1-1.1-.2-1.6-.4zm-2.8-.8-.3.9c.5.2 1 .3 1.5.5l.3-.9a5.27 5.27 0 0 0-1.5-.5zm-2.7-1-.3.9 1.5.5.3-.9zm14 3.7-.1.9c.5.1 1.1.1 1.6.2l.1-.9c-.6 0-1.1-.1-1.6-.2zm-2.8-.5-.2 1 1.6.3.2-1zm-2.9-.6-.2.9 1.6.4.2-1zm14.4 2v.9h1.6v-.9c-.6.1-1.1.1-1.6 0zm-2.9-.2-.1 1 1.6.1.1-1zm-2.9-.3-.1 1 1.6.2.1-1zm14.4.6v.9h1.6v-.9h-1.6zm-2.8.1v.9h1.6v-1zm-2.9-.1v1h1.6v-.9zm14.4-.8.1.9c.5-.1 1.1-.1 1.6-.2l-.1-.9c-.5.1-1 .2-1.6.2zm-2.8.4.1 1 1.6-.2-.1-1zm-2.9.2v1l1.7-.1-.1-1zM764 325l.2.9 1.6-.4-.2-.9c-.6.2-1.1.3-1.6.4zm-2.9.7.2 1 1.6-.4-.2-.9zm-2.8.6.2.9 1.6-.3-.2-.9zm13.9-4 .4.9 1.5-.7-.4-.9zm-2.7 1 .3.9 1.6-.6-.4-.9z"/><use xlink:href="#a" x="637.9"/><use xlink:href="#b" x="637.9"/><use xlink:href="#c" x="637.9"/><path d="m774.8 321.1.5.9 1.4-.8-.4-.8zm12.6-7.3.5.8 1.4-1-.6-.8z"/><use xlink:href="#d" x="637.9"/><path d="m782.5 317 .5.8c.4-.3.9-.5 1.4-.8l-.5-.8c-.5.2-.9.5-1.4.8zm11.727-8.324 1.271-.972.607.794-1.271.972zM792 310.3l.6.8 1.3-1-.6-.7zm-2.3 1.8.6.8 1.3-1-.6-.8zm11.6-8.8.6.7 1.3-.9-.5-.7zM799 305l.6.8 1.3-1-.6-.8zm-2.38 1.797 1.269-.974.609.793-1.269.974zm11.88-8.497.5.8a9.13 9.13 0 0 1 1.3-.8l-.5-.8c-.4.2-.8.5-1.3.8z"/><use xlink:href="#d" x="659" y="-15.5"/><path d="m803.7 301.6.6.8 1.3-1-.6-.8zm12.5-7.7.4.9 1.4-.7-.4-.9zm-2.6 1.4.4.8 1.4-.7-.4-.9c-.5.3-1 .5-1.4.8zm-2.6 1.4.5.8c.4-.3.9-.5 1.4-.8l-.5-.8c-.5.3-.9.6-1.4.8zm13.2-6.2.3.9c.5-.2 1-.3 1.5-.5l-.3-.9a5.27 5.27 0 0 1-1.5.5zm-2.7 1.1.3.9 1.6-.6-.4-.9zm-2.7 1.1.4.9 1.5-.7-.4-.9zm13.9-4.4.2.9 1.6-.3-.1-.9zm-2.8.6.2 1 1.6-.4-.2-1zm-2.8.8.2.9c.5-.1 1-.3 1.5-.4l-.2-.9c-.5 0-1 .2-1.5.4zm14.3-2.6.1 1 1.6-.2-.1-.9zm-2.9.3.1 1 1.6-.2-.1-1zm-2.9.4.1.9c.5-.1 1-.1 1.6-.2l-.1-.9c-.5 0-1.1.1-1.6.2zm14.6-1.1v1l1.6.1v-1zm-2.9.1v1l1.6-.1v-1zm-2.9.1v.9h1.6v-.9c-.6-.1-1.1-.1-1.6 0zm14.5.3-.1 1 1.6.2.2-1zm-2.9-.2v.9l1.6.2.1-1zm-2.9-.2v.9h1.6v-.9h-1.6zm14.5 1.7-.2 1 1.5.4.3-1zm-2.8-.5-.2.9 1.5.3.2-.9zm-2.9-.4-.1.9c.5.1 1 .1 1.6.2l.1-.9c-.5-.1-1.1-.2-1.6-.2zM876 291l-.3.9 1.5.6.4-.9zm-2.7-.9-.3.9c.5.1 1 .3 1.5.5l.3-.9c-.5-.2-1-.4-1.5-.5z"/><use xlink:href="#e" x="637.9"/><path d="m884.1 294.5-.4.8c.5.2.9.5 1.4.7l.4-.8c-.5-.2-.9-.4-1.4-.7zm-2.7-1.3-.4.9 1.5.7.4-.9zm-2.6-1.1-.4.9 1.5.6.4-.9zm12.8 6.9-.5.8 1.3.9.5-.8c-.3-.3-.8-.6-1.3-.9zm-2.4-1.6-.5.8c.4.3.9.5 1.3.8l.5-.8a9.13 9.13 0 0 1-1.3-.8zm-2.5-1.5-.5.8c.5.2.9.5 1.4.8l.5-.8c-.5-.2-1-.5-1.4-.8zm12.1 8.1-.6.8 1.3 1 .6-.8zm-2.4-1.6-.5.7 1.2 1 .6-.8zm-2.3-1.7-.6.8 1.4.9.5-.8zm11.6 8.7-.6.7 1.3 1 .6-.7zm-2.983-.951.609-.793 1.269.974-.609.793zm-2.142-1.88.547-.715 1.271.972-.547.715zM912.8 314.5l-.5.8 1.3.9.5-.8-1.3-.9zm-2.4-1.6-.5.7 1.3 1 .5-.8zm-2.3-1.8-.6.8 1.3 1 .6-.8zm12.1 7.9-.4.8c.5.2.9.5 1.4.8l.4-.8c-.5-.2-.9-.5-1.4-.8zm-2.5-1.3-.5.8c.4.3.9.5 1.4.8l.5-.8-1.4-.8z"/><use xlink:href="#f" x="637.9"/><path d="m928 322.7-.3 1 1.5.5.4-.9zm-2.6-1.1-.4.9 1.5.7.4-.9zm-2.6-1.2-.4.9 1.4.7.5-.9zm13.6 5-.3.9 1.6.4.2-1zm-2.8-.8-.2.9 1.6.4.2-.9c-.6-.1-1.1-.2-1.6-.4z"/><use xlink:href="#g" x="637.9"/><path d="m944.9 326.9-.1 1 1.6.2.1-1zm-2.9-.4-.1.9c.5.1 1.1.1 1.6.2l.1-.9c-.5 0-1.1-.1-1.6-.2zm-2.8-.5-.2 1 1.6.3.2-1zm14.4 1.5v1h1.6v-.9zm-2.9-.1v.9h1.6v-.9c-.5.1-1.1.1-1.6 0zm-2.9-.2-.1 1 1.7.1v-1z"/></g><defs><path id="a" d="m128.9 324.2.3.9c.5-.1 1-.3 1.5-.5l-.3-.9c-.5.2-1 .4-1.5.5z"/><path id="b" d="m142.1 318.5.5.8c.5-.2.9-.5 1.4-.8l-.5-.8c-.5.2-.9.5-1.4.8z"/><path id="c" d="m139.5 319.8.4.8c.5-.2.9-.5 1.4-.8l-.4-.8c-.4.3-.9.6-1.4.8z"/><path id="d" d="m147.1 315.4.5.8 1.3-.9-.5-.8-1.3.9z"/><path id="e" d="m232.6 289.2-.2.9c.5.1 1 .3 1.5.4l.2-.9c-.5-.1-1-.2-1.5-.4z"/><path id="f" d="m277.3 316.1-.5.8c.4.3.9.6 1.4.8l.5-.8c-.5-.2-.9-.5-1.4-.8z"/><path id="g" d="m292.9 323.8-.3.9c.5.2 1 .3 1.5.5l.3-.9c-.5-.2-1-.4-1.5-.5z"/></defs></svg>
