<?xml version="1.0" encoding="utf-8"?>
<!-- Generator: Adobe Illustrator 22.1.0, SVG Export Plug-In . SVG Version: 6.00 Build 0)  -->
<svg version="1.1" id="Layer_1" xmlns="http://www.w3.org/2000/svg" xmlns:xlink="http://www.w3.org/1999/xlink" x="0px" y="0px"
	 viewBox="0 0 24 24" style="enable-background:new 0 0 24 24;" xml:space="preserve">
<title>saving-bag-increase</title>
<g>
	<path d="M14.115,22.751c-0.72,0-1.332-0.591-1.364-1.318v-0.637c-1.452,1.25-3.32,1.954-5.248,1.954C3.505,22.75,0,19.771,0,16.375
		c0-3.32,2.62-6.582,4.523-8.113C4.114,7.366,3.726,6.527,3.341,5.704C3.087,5.159,3.06,4.548,3.265,3.983
		C3.47,3.417,3.883,2.966,4.427,2.712C4.722,2.574,5.052,2.5,5.379,2.5H10.5c0.414,0,0.75,0.336,0.75,0.75S10.914,4,10.5,4H5.379
		C5.27,4,5.16,4.025,5.062,4.071C4.88,4.156,4.742,4.306,4.674,4.494C4.606,4.683,4.615,4.886,4.699,5.068
		c0.466,0.994,0.936,2.015,1.438,3.123c0.15,0.33,0.042,0.72-0.256,0.926C4.115,10.341,1.5,13.494,1.5,16.375
		c0,2.552,2.86,4.875,6,4.875c2.067,0,4.02-0.985,5.25-2.642v-1.999c0.021-0.475,0.26-0.888,0.634-1.131
		c-0.324-1.613-1.063-3.107-2.146-4.336c-0.273-0.31-0.244-0.785,0.066-1.059c0.136-0.121,0.313-0.188,0.496-0.188
		c0.215,0,0.42,0.092,0.563,0.254c1.274,1.445,2.136,3.203,2.505,5.1l7.607-0.001c0.806,0,1.491,0.659,1.525,1.469l0,4.673
		c-0.033,0.77-0.642,1.359-1.385,1.359l-0.052-0.001L14.115,22.751z M14.25,21.251l8.251,0L22.5,16.753
		c0,0.004-0.001,0.005-0.002,0.005c-0.004,0-0.012-0.008-0.028-0.008l-8.221,0.001L14.25,21.251z"/>
	<path d="M18.357,20.119C17.744,20.11,17.25,19.608,17.25,19c0.005-0.616,0.497-1.106,1.121-1.119
		c0.633,0.01,1.127,0.52,1.117,1.137c-0.01,0.607-0.512,1.101-1.119,1.101H18.357z"/>
	<path d="M7.687,20.5c-0.414,0-0.75-0.336-0.75-0.75v-0.354c-0.673-0.154-1.282-0.543-1.705-1.098
		c-0.121-0.159-0.173-0.356-0.146-0.555c0.027-0.198,0.129-0.375,0.289-0.496c0.132-0.1,0.289-0.153,0.454-0.153
		c0.236,0,0.454,0.108,0.597,0.296c0.277,0.364,0.714,0.581,1.169,0.581c0.02,0,0.041,0,0.061-0.001C8.432,17.969,9,17.549,9,17.172
		c0-0.376-0.562-0.796-1.313-0.796c-1.551,0-2.812-1.031-2.812-2.298c0-1.052,0.849-1.943,2.062-2.213V11.5
		c0-0.414,0.336-0.75,0.75-0.75s0.75,0.336,0.75,0.75v0.356c0.675,0.154,1.284,0.542,1.705,1.096
		c0.25,0.329,0.186,0.801-0.143,1.051c-0.132,0.1-0.288,0.153-0.454,0.153c-0.237,0-0.454-0.108-0.597-0.296
		c-0.276-0.364-0.715-0.581-1.174-0.581l-0.057,0.001c-0.774,0-1.342,0.421-1.342,0.798c0,0.377,0.561,0.798,1.312,0.798
		c1.551,0,2.813,1.03,2.813,2.296c0,1.052-0.85,1.943-2.063,2.212v0.365C8.437,20.164,8.101,20.5,7.687,20.5z"/>
	<path d="M9.745,9.257c-0.2,0-0.389-0.078-0.53-0.22c-0.142-0.141-0.22-0.33-0.22-0.53c0-0.2,0.078-0.389,0.219-0.53l3.746-3.75
		c0.41-0.409,0.977-0.644,1.558-0.644c0.192,0,0.383,0.025,0.567,0.075l3.671,0.981c0.081,0.024,0.152,0.035,0.223,0.035
		c0.186,0,0.359-0.072,0.49-0.203l1.972-1.97h-1.727c-0.414,0-0.75-0.336-0.75-0.75S19.301,1,19.714,1h3.536
		C23.664,1,24,1.337,24,1.75v3.536c0,0.414-0.336,0.75-0.75,0.75S22.5,5.7,22.5,5.286V3.563l-1.97,1.968
		c-0.414,0.415-0.965,0.644-1.551,0.644c-0.214,0-0.427-0.031-0.633-0.093l-3.649-0.975c-0.059-0.016-0.119-0.024-0.18-0.024
		c-0.185,0-0.366,0.075-0.496,0.204l-3.746,3.75C10.134,9.179,9.946,9.257,9.745,9.257z"/>
</g>
</svg>
