<?xml version="1.0" encoding="utf-8"?>
<!-- Generator: Adobe Illustrator 22.1.0, SVG Export Plug-In . SVG Version: 6.00 Build 0)  -->
<svg version="1.1" id="Layer_1" xmlns="http://www.w3.org/2000/svg" xmlns:xlink="http://www.w3.org/1999/xlink" x="0px" y="0px"
	 viewBox="0 0 24 24" style="enable-background:new 0 0 24 24;" xml:space="preserve">
<title>saving-bank-1</title>
<g>
	<path d="M1.5,24c-0.414,0-0.75-0.336-0.75-0.75S1.086,22.5,1.5,22.5h21c0.414,0,0.75,0.336,0.75,0.75S22.914,24,22.5,24H1.5z"/>
	<path d="M1.5,21c-0.414,0-0.75-0.336-0.75-0.75S1.086,19.5,1.5,19.5h21c0.414,0,0.75,0.336,0.75,0.75S22.914,21,22.5,21H1.5z"/>
	<path d="M3,18c-0.414,0-0.75-0.336-0.75-0.75v-7.5C2.25,9.336,2.586,9,3,9s0.75,0.336,0.75,0.75v7.5C3.75,17.663,3.414,18,3,18z"/>
	<path d="M6,18c-0.414,0-0.75-0.336-0.75-0.75v-7.5C5.25,9.336,5.586,9,6,9s0.75,0.336,0.75,0.75v7.5C6.75,17.663,6.414,18,6,18z"/>
	<path d="M10.5,18c-0.414,0-0.75-0.336-0.75-0.75v-7.5C9.75,9.336,10.086,9,10.5,9s0.75,0.336,0.75,0.75v7.5
		C11.25,17.663,10.914,18,10.5,18z"/>
	<path d="M13.5,18c-0.414,0-0.75-0.336-0.75-0.75v-7.5C12.75,9.336,13.086,9,13.5,9s0.75,0.336,0.75,0.75v7.5
		C14.25,17.663,13.914,18,13.5,18z"/>
	<path d="M18,18c-0.414,0-0.75-0.336-0.75-0.75v-7.5C17.25,9.336,17.586,9,18,9s0.75,0.336,0.75,0.75v7.5
		C18.75,17.663,18.414,18,18,18z"/>
	<path d="M21,18c-0.414,0-0.75-0.336-0.75-0.75v-7.5C20.25,9.336,20.586,9,21,9s0.75,0.336,0.75,0.75v7.5
		C21.75,17.663,21.414,18,21,18z"/>
	<path d="M1.5,7.5c-0.337,0-0.634-0.227-0.723-0.551c-0.089-0.324,0.051-0.671,0.34-0.843l9.689-5.762
		C11.151,0.121,11.567,0,11.997,0c0.434,0,0.856,0.124,1.22,0.357l9.667,5.748c0.289,0.172,0.429,0.519,0.34,0.843
		C23.134,7.273,22.837,7.5,22.5,7.5H1.5z M19.771,6l-7.344-4.367c-0.138-0.088-0.283-0.131-0.431-0.131
		c-0.143,0-0.283,0.041-0.403,0.118L4.228,6H19.771z"/>
</g>
</svg>
