<?xml version="1.0" encoding="utf-8"?>
<!-- Generator: Adobe Illustrator 22.1.0, SVG Export Plug-In . SVG Version: 6.00 Build 0)  -->
<svg version="1.1" id="Layer_1" xmlns="http://www.w3.org/2000/svg" xmlns:xlink="http://www.w3.org/1999/xlink" x="0px" y="0px"
	 viewBox="0 0 24 24" style="enable-background:new 0 0 24 24;" xml:space="preserve">
<title>travel-luggage-1</title>
<g>
	<path d="M5.988,18.686c-0.108,0-0.213-0.023-0.312-0.068c-2.367-1.086-4.17-3.029-5.076-5.471c-0.906-2.442-0.807-5.09,0.279-7.457
		c0.609-1.328,1.483-2.473,2.599-3.405c0.041-0.043,0.088-0.081,0.14-0.113c1.735-1.396,3.914-2.165,6.139-2.165
		c1.404,0,2.766,0.299,4.049,0.887c0.952,0.437,1.83,1.031,2.609,1.767c0.061,0.042,0.114,0.093,0.159,0.151
		c1.853,1.828,2.915,4.356,2.916,6.941c0,0.414-0.336,0.75-0.75,0.75s-0.75-0.336-0.75-0.75c-0.001-1.88-0.646-3.693-1.827-5.161
		L15.19,6.534c-0.089,0.178-0.103,0.381-0.04,0.572l0.557,1.661c0.064,0.19,0.05,0.393-0.04,0.573
		c-0.089,0.179-0.243,0.313-0.433,0.377c-0.078,0.026-0.158,0.039-0.238,0.039c-0.323,0-0.609-0.206-0.711-0.512l-0.557-1.662
		C13.537,7.01,13.58,6.4,13.849,5.862l1.208-2.409c-0.574-0.486-1.203-0.888-1.875-1.197c-1.085-0.498-2.237-0.75-3.424-0.75
		c-1.461,0-2.876,0.38-4.133,1.105l3.939,1.492c1.037,0.389,1.632,1.461,1.414,2.549l-0.313,1.567
		c-0.17,0.849-0.822,1.533-1.662,1.742l-1.706,0.426l-1.012,2.529c-0.282,0.707-0.767,1.305-1.401,1.728l-1.138,0.782
		c0.724,0.767,1.583,1.381,2.557,1.828c0.376,0.173,0.541,0.619,0.369,0.994C6.548,18.514,6.281,18.686,5.988,18.686z M4.178,3.667
		c-0.82,0.747-1.471,1.636-1.935,2.648c-0.919,2.003-1.003,4.244-0.236,6.31c0.21,0.566,0.482,1.109,0.811,1.617l1.224-0.841
		c0.388-0.259,0.68-0.618,0.849-1.042l1.154-2.886C6.134,9.251,6.327,9.083,6.56,9.025l2.079-0.519
		c0.28-0.07,0.498-0.297,0.554-0.58l0.313-1.568C9.579,5.994,9.38,5.637,9.034,5.507L4.178,3.667z"/>
	<path d="M11.241,24.003c-1.241,0-2.25-1.009-2.25-2.25v-5.25c0-1.241,1.009-2.25,2.25-2.25h2.25c0.001-1.653,1.346-2.998,3-2.998
		s2.999,1.345,3,2.998h2.25c1.241,0,2.25,1.009,2.25,2.25v5.25c0,1.241-1.009,2.25-2.25,2.25H11.241z M21.741,22.503
		c0.414,0,0.75-0.336,0.75-0.75v-5.25c0-0.414-0.336-0.75-0.75-0.75h-0.75v6.75H21.741z M19.491,22.503v-6.75h-0.712
		c-0.013,0.001-0.027,0.002-0.038,0.002c-0.014,0-0.029-0.001-0.043-0.002l-4.419,0c-0.013,0.001-0.028,0.002-0.038,0.002
		c-0.014,0-0.029-0.001-0.043-0.002l-0.707,0v6.75H19.491z M11.241,15.753c-0.414,0-0.75,0.336-0.75,0.75v5.25
		c0,0.414,0.336,0.75,0.75,0.75h0.75v-6.75H11.241z M17.991,14.253c-0.001-0.826-0.674-1.498-1.5-1.498
		c-0.826,0-1.499,0.672-1.5,1.498H17.991z"/>
</g>
</svg>
