<?xml version="1.0" encoding="utf-8"?>
<!-- Generator: Adobe Illustrator 22.1.0, SVG Export Plug-In . SVG Version: 6.00 Build 0)  -->
<svg version="1.1" id="Layer_1" xmlns="http://www.w3.org/2000/svg" xmlns:xlink="http://www.w3.org/1999/xlink" x="0px" y="0px"
	 viewBox="0 0 24 24" style="enable-background:new 0 0 24 24;" xml:space="preserve">
<title>vintage-car-6</title>
<g>
	<path d="M18.751,18.125c-0.96,0-1.808-0.615-2.121-1.5H7.371c-0.314,0.885-1.162,1.5-2.121,1.5c-0.98,0-1.839-0.638-2.138-1.55
		C1.32,16.269,0,14.724,0,12.879V10.5c-0.001-0.593,0.239-1.174,0.658-1.594l3.622-3.622c0.425-0.425,0.989-0.659,1.59-0.659h6.176
		c0.67,0,1.3,0.295,1.729,0.81l3.111,3.732l5.232,0.654C24,10.061,24,12.179,24,12.875c0,1.78-0.403,2.154-1.469,2.698
		c-0.365,0.185-1.133,0.568-1.586,0.794C20.718,17.383,19.808,18.125,18.751,18.125z M18.751,15.125c-0.414,0-0.75,0.336-0.75,0.75
		s0.336,0.75,0.75,0.75s0.75-0.336,0.75-0.75S19.165,15.125,18.751,15.125z M5.25,15.125c-0.414,0-0.75,0.336-0.75,0.75
		s0.336,0.75,0.75,0.75S6,16.289,6,15.875S5.664,15.125,5.25,15.125z M16.63,15.125c0.314-0.885,1.162-1.5,2.121-1.5
		c0.839,0,1.589,0.458,1.977,1.174c0.404-0.202,0.858-0.429,1.105-0.554c0.667-0.34,0.667-0.34,0.667-1.37
		c0-1.493-0.37-1.54-0.569-1.565l-4.937-0.617l-1.662,4.432H16.63z M13.73,15.125l1.406-3.75H8.637l1.607,3.75H13.73z M8.613,15.125
		l-1.607-3.75H1.5v1.504c0,1.023,0.694,1.906,1.659,2.169c0.335-0.842,1.164-1.423,2.091-1.423c0.96,0,1.808,0.615,2.121,1.5H8.613z
		 M15.524,9.875l-2.9-3.48c-0.143-0.172-0.353-0.27-0.576-0.27H8.25v3.75H15.524z M6.75,9.875v-3.75H5.871
		c-0.2,0-0.388,0.078-0.53,0.219L1.811,9.875H6.75z"/>
</g>
</svg>
