<?xml version="1.0" encoding="utf-8"?>
<!-- Generator: Adobe Illustrator 22.1.0, SVG Export Plug-In . SVG Version: 6.00 Build 0)  -->
<svg version="1.1" id="Layer_1" xmlns="http://www.w3.org/2000/svg" xmlns:xlink="http://www.w3.org/1999/xlink" x="0px" y="0px"
	 viewBox="0 0 24 24" style="enable-background:new 0 0 24 24;" xml:space="preserve">
<title>wedding-cake</title>
<g>
	<path d="M1.5,23.752c-0.414,0-0.75-0.336-0.75-0.75s0.336-0.75,0.75-0.75h21c0.414,0,0.75,0.336,0.75,0.75s-0.336,0.75-0.75,0.75
		H1.5z"/>
	<path d="M4.5,20.752c-1.241,0-2.25-1.009-2.25-2.25v-6c0-1.241,1.009-2.25,2.25-2.25h6.148L6.689,6.159
		C5.436,4.846,5.435,2.794,6.686,1.484c0.034-0.036,0.07-0.072,0.107-0.107c0.593-0.565,1.372-0.876,2.193-0.876
		c0.879,0,1.696,0.349,2.301,0.984l0.963,0.998l0.967-1.001c0.032-0.033,0.068-0.069,0.105-0.105
		c0.593-0.565,1.371-0.876,2.192-0.876c0.879,0,1.697,0.349,2.302,0.984c1.25,1.309,1.25,3.361,0,4.671l-3.963,4.097H19.5
		c1.241,0,2.25,1.009,2.25,2.25v6c0,1.241-1.009,2.25-2.25,2.25H4.5z M3.75,18.502c0,0.414,0.336,0.75,0.75,0.75h15
		c0.414,0,0.75-0.336,0.75-0.75v-2.817c-0.053,0.036-0.107,0.07-0.162,0.102c-0.518,0.305-1.106,0.466-1.701,0.466
		c-0.286,0-0.572-0.037-0.851-0.109c-0.519-0.135-0.991-0.386-1.386-0.736c-0.57,0.536-1.323,0.84-2.121,0.844
		c-0.761-0.006-1.48-0.294-2.029-0.802c-0.549,0.507-1.265,0.795-2.019,0.802c-0.806-0.005-1.562-0.309-2.133-0.846
		c-0.613,0.542-1.406,0.846-2.231,0.846c-0.672-0.002-1.32-0.204-1.868-0.57V18.502z M16.141,13.459
		c0.255,0,0.496,0.142,0.631,0.371c0.253,0.43,0.658,0.736,1.141,0.861c0.156,0.041,0.315,0.061,0.473,0.061
		c0.329,0,0.655-0.089,0.943-0.259c0.57-0.335,0.923-0.954,0.921-1.615v-0.377c0-0.413-0.336-0.75-0.75-0.75h-15
		c-0.414,0-0.75,0.336-0.75,0.75v0.376c-0.003,1.031,0.833,1.871,1.864,1.874c0.664,0,1.281-0.353,1.615-0.921
		c0.136-0.232,0.373-0.371,0.632-0.371c0.018,0,0.036,0.001,0.053,0.002c0.256,0.007,0.504,0.163,0.629,0.407
		c0.277,0.542,0.828,0.88,1.437,0.884c0.567-0.005,1.096-0.344,1.343-0.864c0.124-0.26,0.389-0.428,0.677-0.428
		c0.288,0,0.554,0.168,0.677,0.428c0.247,0.52,0.778,0.859,1.354,0.864c0.6-0.004,1.149-0.342,1.426-0.884
		c0.125-0.244,0.372-0.4,0.646-0.408C16.101,13.46,16.121,13.459,16.141,13.459z M8.985,2C8.551,2,8.14,2.165,7.827,2.463
		C7.808,2.481,7.789,2.5,7.771,2.519c-0.696,0.729-0.696,1.871-0.001,2.6L12.25,9.75l4.483-4.635
		c0.693-0.726,0.692-1.867-0.003-2.595C16.41,2.185,15.978,2,15.513,2c-0.434,0-0.845,0.164-1.158,0.463
		c-0.02,0.019-0.037,0.037-0.055,0.055L12.79,4.083c-0.137,0.142-0.334,0.224-0.54,0.224c-0.205,0-0.402-0.082-0.539-0.224
		l-1.506-1.56C9.882,2.185,9.45,2,8.985,2z"/>
</g>
</svg>
