<?xml version="1.0" encoding="utf-8"?>
<!-- Generator: Adobe Illustrator 25.0.1, SVG Export Plug-In . SVG Version: 6.00 Build 0)  -->
<svg version="1.1" id="Camada_1" xmlns="http://www.w3.org/2000/svg" xmlns:xlink="http://www.w3.org/1999/xlink" x="0px" y="0px"
	 viewBox="0 0 1920 561.9" style="enable-background:new 0 0 1920 561.9;" xml:space="preserve">
<style type="text/css">
	.st0{fill:#FF6746;}
</style>
<g>
	<path class="st0" d="M687.9,388.9c0.5,3.6-1.6,7-5.1,8.2c-14.3,4.7-33.1,7.8-53.4,7.8c-45.3,0-86.4-29.9-86.4-79.7v-85.6
		c0-54.1,41.6-82.7,87.8-82.7c20.6,0,38.5,4.3,48.3,7.5c3.6,1.2,5.7,4.7,5.1,8.4l-3.3,19.9c-0.7,4.4-5.2,7.3-9.5,6.1
		c-9.1-2.5-23.5-5.8-38.5-5.8c-27.6,0-48.9,18.7-48.9,49.8V322c0,29.7,21.2,47,51.6,47c15.3,0,30.1-2.9,40.3-5.5
		c4.4-1.1,8.8,1.8,9.4,6.4L687.9,388.9L687.9,388.9z"/>
	<path class="st0" d="M861.6,395.8l-14.4-50.5H762l-14.4,50.5c-0.9,3.3-3.9,5.5-7.3,5.5h-27.8c-5.1,0-8.7-4.9-7.3-9.8l68.2-225.6
		c1-3.2,3.9-5.4,7.3-5.4h48c3.3,0,6.3,2.2,7.3,5.4L904,391.5c1.5,4.9-2.2,9.8-7.3,9.8h-27.8C865.5,401.3,862.5,399.1,861.6,395.8
		L861.6,395.8z M770.7,311.7h67.9l-34.2-119.1L770.7,311.7z"/>
	<path class="st0" d="M980.3,322.7v71c0,4.2-3.4,7.6-7.6,7.6h-25.9c-4.2,0-7.6-3.4-7.6-7.6V168.1c0-4.2,3.4-7.6,7.6-7.6h73.2
		c43.6,0,80.9,24.4,80.9,72.2v18.1c0,48-37.3,71.8-80.9,71.8L980.3,322.7L980.3,322.7z M980.3,194.1v95.2h37.3
		c26.7,0,42.3-15.1,42.3-42.5v-11.7c0-26.5-16-40.9-42.3-40.9H980.3L980.3,194.1z"/>
	<path class="st0" d="M1174.3,401.3h-25.9c-4.2,0-7.6-3.4-7.6-7.6V168.1c0-4.2,3.4-7.6,7.6-7.6h25.9c4.2,0,7.6,3.4,7.6,7.6v225.6
		C1181.9,397.9,1178.5,401.3,1174.3,401.3z"/>
	<path class="st0" d="M1280,195.9h-58.4c-4.2,0-7.6-3.4-7.6-7.6v-20.2c0-4.2,3.4-7.6,7.6-7.6h158.2c4.2,0,7.6,3.4,7.6,7.6v20.2
		c0,4.2-3.4,7.6-7.6,7.6h-58.4v197.8c0,4.2-3.4,7.6-7.6,7.6h-26.3c-4.2,0-7.6-3.4-7.6-7.6V195.9z"/>
	<path class="st0" d="M1544.5,395.8l-14.4-50.5h-85.2l-14.4,50.5c-0.9,3.3-3.9,5.5-7.3,5.5h-27.8c-5.1,0-8.7-4.9-7.3-9.8l68.2-225.6
		c1-3.2,3.9-5.4,7.3-5.4h48c3.3,0,6.3,2.2,7.3,5.4l68.2,225.6c1.5,4.9-2.2,9.8-7.3,9.8h-27.8
		C1548.4,401.3,1545.4,399.1,1544.5,395.8L1544.5,395.8z M1453.6,311.7h67.9l-34.2-119.1L1453.6,311.7z"/>
	<path class="st0" d="M1663.2,365.4h88.6c4.2,0,7.6,3.4,7.6,7.6v20.8c0,4.2-3.4,7.6-7.6,7.6h-122.1c-4.2,0-7.6-3.4-7.6-7.6V168.1
		c0-4.2,3.4-7.6,7.6-7.6h25.9c4.2,0,7.6,3.4,7.6,7.6L1663.2,365.4L1663.2,365.4z"/>
	<path class="st0" d="M160.5,393.8V168.1c0-4.2,3.4-7.6,7.6-7.6h74.8c49.6,0,72.9,24.7,72.9,65.6c0,23.6-12.1,41.4-33.6,50.9
		c24.2,8.5,42.5,29.2,42.5,56.2c0,45.2-31.8,68.1-80.7,68.1h-75.8C163.9,401.3,160.5,397.9,160.5,393.8L160.5,393.8z M276.1,227.8
		c0-21.7-11.7-34-37-34h-38.8v68.6h40.7C264.8,262.4,276.1,249.1,276.1,227.8z M238.3,292.7h-37.9v75.4h38.9c28.1,0,45-11.9,45-37.9
		S266,292.7,238.3,292.7z"/>
	<path class="st0" d="M510.5,203.3v-35.1c0-4.2-3.4-7.6-7.6-7.6l-144.6-0.1c-5.2,0-9.5,4.2-9.5,9.4l-0.1,31.1c0,2.5,0.8,4.9,2.3,6.9
		l42.3,68.3c2,2.7,2,6.5,0,9.2L351,353.8c-1.5,2-2.3,4.4-2.3,6.9v33c0,4.2,3.4,7.6,7.6,7.6l146.6,0.1c4.2,0,7.6-3.4,7.6-7.6v-35.2
		c0-4.2-3.4-7.6-7.6-7.6h-20c-3.8,0-7.1,2.9-7.5,6.7l-1.2,10h-85.3l49.4-82.5c1.9-2.6,1.9-6.2,0-8.8l-49.4-82.3h85.3l1.2,10.1
		c0.5,3.8,3.7,6.7,7.5,6.7l20,0C507.1,210.9,510.5,207.5,510.5,203.3L510.5,203.3z"/>
	<circle class="st0" cx="487.5" cy="280.9" r="23"/>
</g>
</svg>
